<svg xmlns="http://www.w3.org/2000/svg" xmlns:xlink="http://www.w3.org/1999/xlink" id="Layer_1" x="0px" y="0px" viewBox="0 0 606.6 116.2" style="enable-background:new 0 0 606.6 116.2;" xml:space="preserve"><style type="text/css">	.st0{fill:#16688B;}</style><g>	<polygon class="st0" points="104.6,75.5 105.7,75.5 105.1,76.8  "></polygon>	<path class="st0" d="M205.3,78.3c-7.9,31.3-61.9,64.1-69.1-2.7l-9-48.2l-22,51l-22.1-51l-8.9,48.2c-7.3,66.8-61.3,34-69.1,2.7   C-9.9,19,60.9,28.9,49.6,29.2c-26.2,0.7-34.8,14.1-34.8,14.1c-14.4,28.3,9.3,52.3,28.6,59.2c15.1,5.3,20.7-16.9,22.4-26.9L80.3,1.7   l24.8,58.7L130,1.7l14.4,73.8c1.8,10,7.4,32.2,22.4,26.9c19.3-6.8,43-30.9,28.6-59.2c0,0-8.6-13.4-34.8-14.1   C149.4,28.9,220.2,19,205.3,78.3z"></path>	<path class="st0" d="M193.3,3.1l-31.6,72.5h9l9-21.4l2.5-7.1l11.1-25.7l11.1,25.7l2.6,7.1l9,21.4h9L193.3,3.1z"></path>	<path class="st0" d="M281,78.3l-21.7-50.1l-8.8,47.4h-8.1l14.1-72.5L281,60.7l24.4-57.7l14.1,72.5h-8.1l-8.9-47.4L281,78.3z"></path>	<path class="st0" d="M375.5,78.3l-21.7-50.1l-8.8,47.4H337l14.1-72.5l24.4,57.7l24.4-57.7l14.1,72.5H406l-8.9-47.4L375.5,78.3z"></path>	<path class="st0" d="M501.8,40.8c0,5-0.9,9.7-2.8,14.1c-1.8,4.4-4.5,8.3-8.1,11.8c-3.5,3.4-7.6,6.1-12.2,7.9   c-4.6,1.9-9.3,2.8-14.3,2.8c-4.9,0-9.7-0.9-14.2-2.8c-4.6-1.9-8.6-4.5-12.1-7.9c-3.6-3.5-6.3-7.4-8.1-11.8c-1.9-4.4-2.8-9.1-2.8-14   c0-5,0.9-9.7,2.8-14.1s4.6-8.4,8.1-11.8c3.5-3.4,7.5-6,12.1-7.9c4.6-1.8,9.3-2.8,14.2-2.8c5,0,9.7,0.9,14.3,2.8   c4.6,1.8,8.6,4.5,12.1,7.9c3.5,3.4,6.2,7.4,8.1,11.8C500.8,31.1,501.8,35.8,501.8,40.8z M464.5,69.6c3.8,0,7.4-0.7,10.9-2.2   c3.4-1.4,6.6-3.5,9.3-6.3c2.7-2.7,4.8-5.8,6.2-9.3c1.4-3.5,2.1-7.1,2.1-11c0-3.9-0.7-7.6-2.2-11.1s-3.5-6.6-6.2-9.3   c-2.7-2.7-5.8-4.8-9.3-6.2c-3.4-1.4-7.1-2.1-10.9-2.1c-3.9,0-7.5,0.7-11,2.1c-3.5,1.4-6.5,3.5-9.2,6.2c-2.7,2.8-4.8,5.9-6.2,9.4   s-2.1,7.2-2.1,11.1c0,3.9,0.7,7.5,2.1,11c1.4,3.4,3.5,6.5,6.3,9.3c2.8,2.8,5.9,4.9,9.3,6.3C457,68.9,460.7,69.6,464.5,69.6z"></path>	<path class="st0" d="M599.3,34.5c-2.9-2.7-6.9-4.1-12-4.1c-3.5,0-6.5,0.7-9.1,2.1c-2.6,1.4-4.9,3.4-6.8,6.2V5.8h-7.3v69.7h7.4V53   c0-3.6,0.2-6.2,0.6-7.6c0.4-1.5,1.1-2.8,2-3.9c1.2-1.5,2.7-2.6,4.6-3.5c1.8-0.8,3.8-1.2,6.1-1.2c3.9,0,6.7,1.1,8.6,3.2   c1.9,2.2,2.8,5.4,2.8,9.8v25.7h7.6V45.9C603.7,41,602.2,37.2,599.3,34.5z"></path>	<line class="st0" x1="105.7" y1="75.5" x2="104.6" y2="75.5"></line>	<line class="st0" x1="144.3" y1="75.5" x2="135.6" y2="75.5"></line>	<line class="st0" x1="74.7" y1="75.5" x2="66" y2="75.5"></line>	<line class="st0" x1="182.2" y1="47.1" x2="179.8" y2="54.2"></line>	<line class="st0" x1="207" y1="54.2" x2="204.4" y2="47.1"></line>	<polygon class="st0" points="546.8,30.9 546.8,37 534.8,37 534.8,75.6 527.2,75.6 527.2,37 515.3,37 515.3,30.9 527.2,30.9    527.2,6 534.8,6 534.8,30.9  "></polygon></g></svg>